<svg viewBox="0 0 48 48" xml:space="preserve" xmlns="http://www.w3.org/2000/svg" enable-background="new 0 0 48 48"><g id="Icons"><path d="M33.035 13.535h1.41c1.24 0 2.25 1.01 2.25 2.26v16.41c0 1.25-1.01 2.26-2.25 2.26h-20.88c-1.25 0-2.26-1.01-2.26-2.26v-16.41c0-1.25 1.01-2.26 2.26-2.26h19.47z" fill="none" stroke="#ffffff" stroke-width=".7" stroke-linecap="round" stroke-linejoin="round" stroke-miterlimit="10" class="stroke-303030"></path><path d="M34.69 32.697H13.31a.443.443 0 0 1-.443-.442V22.94c0-.245.198-.443.443-.443h21.38c.245 0 .443.198.443.443v9.314a.443.443 0 0 1-.443.442zM17.259 19.864h-3.751a.503.503 0 0 1-.503-.503V15.61c0-.278.225-.503.503-.503h3.751c.278 0 .503.225.503.503v3.751a.503.503 0 0 1-.503.503zM34.606 16.875H21.843a.383.383 0 0 1-.383-.383v-.758c0-.211.171-.383.383-.383h12.763c.212 0 .383.172.383.383v.758a.383.383 0 0 1-.383.383zM27.303 19.864h-5.399a.444.444 0 0 1-.444-.444v-.635c0-.246.199-.445.444-.445h5.399c.245 0 .444.2.444.445v.635a.444.444 0 0 1-.444.444z" fill="none" stroke="#ffffff" stroke-width=".7" stroke-linecap="round" stroke-linejoin="round" stroke-miterlimit="10" class="stroke-303030"></path></g></svg>